<?xml version="1.0" encoding="UTF-8"?>
<!DOCTYPE svg PUBLIC "-//W3C//DTD SVG 1.1//EN" "http://www.w3.org/Graphics/SVG/1.1/DTD/svg11.dtd">
<svg version="1.2" width="50.81mm" height="27mm" viewBox="7263 3757 5081 2700" preserveAspectRatio="xMidYMid" fill-rule="evenodd" stroke-width="28.222" stroke-linejoin="round" xmlns="http://www.w3.org/2000/svg" xmlns:ooo="http://xml.openoffice.org/svg/export" xmlns:xlink="http://www.w3.org/1999/xlink" xmlns:presentation="http://sun.com/xmlns/staroffice/presentation" xmlns:smil="http://www.w3.org/2001/SMIL20/" xmlns:anim="urn:oasis:names:tc:opendocument:xmlns:animation:1.0" xmlns:svg="urn:oasis:names:tc:opendocument:xmlns:svg-compatible:1.0" xml:space="preserve">
 <defs class="EmbeddedBulletChars">
  <g id="bullet-char-template-57356" transform="scale(0.00048828125,-0.00048828125)">
   <path d="M 580,1141 L 1163,571 580,0 -4,571 580,1141 Z"/>
  </g>
  <g id="bullet-char-template-57354" transform="scale(0.00048828125,-0.00048828125)">
   <path d="M 8,1128 L 1137,1128 1137,0 8,0 8,1128 Z"/>
  </g>
  <g id="bullet-char-template-10146" transform="scale(0.00048828125,-0.00048828125)">
   <path d="M 174,0 L 602,739 174,1481 1456,739 174,0 Z M 1358,739 L 309,1346 659,739 1358,739 Z"/>
  </g>
  <g id="bullet-char-template-10132" transform="scale(0.00048828125,-0.00048828125)">
   <path d="M 2015,739 L 1276,0 717,0 1260,543 174,543 174,936 1260,936 717,1481 1274,1481 2015,739 Z"/>
  </g>
  <g id="bullet-char-template-10007" transform="scale(0.00048828125,-0.00048828125)">
   <path d="M 0,-2 C -7,14 -16,27 -25,37 L 356,567 C 262,823 215,952 215,954 215,979 228,992 255,992 264,992 276,990 289,987 310,991 331,999 354,1012 L 381,999 492,748 772,1049 836,1024 860,1049 C 881,1039 901,1025 922,1006 886,937 835,863 770,784 769,783 710,716 594,584 L 774,223 C 774,196 753,168 711,139 L 727,119 C 717,90 699,76 672,76 641,76 570,178 457,381 L 164,-76 C 142,-110 111,-127 72,-127 30,-127 9,-110 8,-76 1,-67 -2,-52 -2,-32 -2,-23 -1,-13 0,-2 Z"/>
  </g>
  <g id="bullet-char-template-10004" transform="scale(0.00048828125,-0.00048828125)">
   <path d="M 285,-33 C 182,-33 111,30 74,156 52,228 41,333 41,471 41,549 55,616 82,672 116,743 169,778 240,778 293,778 328,747 346,684 L 369,508 C 377,444 397,411 428,410 L 1163,1116 C 1174,1127 1196,1133 1229,1133 1271,1133 1292,1118 1292,1087 L 1292,965 C 1292,929 1282,901 1262,881 L 442,47 C 390,-6 338,-33 285,-33 Z"/>
  </g>
  <g id="bullet-char-template-9679" transform="scale(0.00048828125,-0.00048828125)">
   <path d="M 813,0 C 632,0 489,54 383,161 276,268 223,411 223,592 223,773 276,916 383,1023 489,1130 632,1184 813,1184 992,1184 1136,1130 1245,1023 1353,916 1407,772 1407,592 1407,412 1353,268 1245,161 1136,54 992,0 813,0 Z"/>
  </g>
  <g id="bullet-char-template-8226" transform="scale(0.00048828125,-0.00048828125)">
   <path d="M 346,457 C 273,457 209,483 155,535 101,586 74,649 74,723 74,796 101,859 155,911 209,963 273,989 346,989 419,989 480,963 531,910 582,859 608,796 608,723 608,648 583,586 532,535 482,483 420,457 346,457 Z"/>
  </g>
  <g id="bullet-char-template-8211" transform="scale(0.00048828125,-0.00048828125)">
   <path d="M -4,459 L 1135,459 1135,606 -4,606 -4,459 Z"/>
  </g>
  <g id="bullet-char-template-61548" transform="scale(0.00048828125,-0.00048828125)">
   <path d="M 173,740 C 173,903 231,1043 346,1159 462,1274 601,1332 765,1332 928,1332 1067,1274 1183,1159 1299,1043 1357,903 1357,740 1357,577 1299,437 1183,322 1067,206 928,148 765,148 601,148 462,206 346,322 231,437 173,577 173,740 Z"/>
  </g>
 </defs>
 <g class="Page">
  <g class="com.sun.star.drawing.PolyPolygonShape">
   <g id="id3">
    <rect class="BoundingBox" stroke="none" fill="none" x="9690" y="3758" width="6" height="548"/>
   </g>
  </g>
  <g class="com.sun.star.drawing.LineShape">
   <g id="id4">
    <rect class="BoundingBox" stroke="none" fill="none" x="9671" y="3757" width="44" height="550"/>
    <path fill="none" stroke="rgb(255,0,0)" stroke-width="38" stroke-linejoin="miter" d="M 9690,3758 L 9695,4305"/>
   </g>
  </g>
  <g class="com.sun.star.drawing.PolyPolygonShape">
   <g id="id5">
    <rect class="BoundingBox" stroke="none" fill="none" x="9696" y="5045" width="4" height="255"/>
   </g>
  </g>
  <g class="com.sun.star.drawing.LineShape">
   <g id="id6">
    <rect class="BoundingBox" stroke="none" fill="none" x="9677" y="5044" width="42" height="257"/>
    <path fill="none" stroke="rgb(255,0,0)" stroke-width="38" stroke-linejoin="miter" d="M 9699,5045 L 9696,5299"/>
   </g>
  </g>
  <g class="com.sun.star.drawing.ClosedBezierShape">
   <g id="id7">
    <rect class="BoundingBox" stroke="none" fill="none" x="9597" y="5296" width="197" height="196"/>
    <path fill="none" stroke="rgb(0,0,0)" stroke-width="38" stroke-linejoin="miter" d="M 9773,5394 C 9773,5437 9738,5472 9695,5472 9651,5472 9616,5437 9616,5394 9616,5351 9651,5315 9695,5315 9738,5315 9773,5351 9773,5394 Z"/>
   </g>
  </g>
  <g class="com.sun.star.drawing.PolyPolygonShape">
   <g id="id8">
    <rect class="BoundingBox" stroke="none" fill="none" x="9499" y="4197" width="438" height="925"/>
    <path fill="none" stroke="rgb(0,0,0)" stroke-width="58" stroke-linejoin="miter" d="M 9907,4386 L 9907,4963 9530,5081 9529,4240 9907,4386 Z"/>
   </g>
  </g>
  <g class="com.sun.star.drawing.PolyPolygonShape">
   <g id="id9">
    <rect class="BoundingBox" stroke="none" fill="none" x="9488" y="5373" width="440" height="925"/>
    <path fill="none" stroke="rgb(0,0,0)" stroke-width="58" stroke-linejoin="miter" d="M 9896,5563 L 9897,6139 9520,6257 9518,5416 9896,5563 Z"/>
   </g>
  </g>
  <g class="com.sun.star.drawing.OpenBezierShape">
   <g id="id10">
    <rect class="BoundingBox" stroke="none" fill="none" x="8530" y="4436" width="987" height="39"/>
    <path fill="none" stroke="rgb(0,0,0)" stroke-width="38" stroke-linejoin="miter" d="M 8530,4455 L 9017,4455 9516,4455"/>
   </g>
  </g>
  <g class="com.sun.star.drawing.PolyLineShape">
   <g id="id11">
    <rect class="BoundingBox" stroke="none" fill="none" x="9004" y="4841" width="536" height="1223"/>
    <path fill="none" stroke="rgb(0,0,0)" stroke-width="38" stroke-linejoin="miter" d="M 9023,6062 L 9027,4861 9538,4866"/>
   </g>
  </g>
  <g class="com.sun.star.drawing.PolyLineShape">
   <g id="id12">
    <rect class="BoundingBox" stroke="none" fill="none" x="9203" y="4447" width="326" height="1156"/>
    <path fill="none" stroke="rgb(0,0,0)" stroke-width="38" stroke-linejoin="miter" d="M 9224,4448 L 9223,5583 9528,5583"/>
   </g>
  </g>
  <g class="com.sun.star.drawing.LineShape">
   <g id="id13">
    <rect class="BoundingBox" stroke="none" fill="none" x="7263" y="4241" width="508" height="39"/>
    <path fill="none" stroke="rgb(0,0,0)" stroke-width="38" stroke-linejoin="miter" d="M 7770,4260 L 7263,4260"/>
   </g>
  </g>
  <g class="com.sun.star.drawing.LineShape">
   <g id="id14">
    <rect class="BoundingBox" stroke="none" fill="none" x="7263" y="4631" width="527" height="39"/>
    <path fill="none" stroke="rgb(0,0,0)" stroke-width="38" stroke-linejoin="miter" d="M 7789,4650 L 7263,4650"/>
   </g>
  </g>
  <g class="com.sun.star.drawing.ClosedBezierShape">
   <g id="id15">
    <rect class="BoundingBox" stroke="none" fill="none" x="7750" y="4065" width="791" height="782"/>
    <path fill="rgb(0,0,0)" stroke="none" d="M 7750,4065 L 7750,4846 8149,4846 C 8370,4846 8540,4671 8540,4456 8540,4241 8370,4065 8149,4065 L 7778,4065 7750,4065 Z M 7806,4121 C 7961,4121 8060,4121 8103,4121 8126,4121 8138,4121 8143,4121 8146,4121 8148,4121 8149,4121 8341,4121 8475,4270 8475,4456 8475,4641 8331,4790 8140,4790 L 7806,4790 7806,4121 Z"/>
   </g>
  </g>
  <g class="com.sun.star.drawing.OpenBezierShape">
   <g id="id16">
    <rect class="BoundingBox" stroke="none" fill="none" x="8563" y="6042" width="956" height="45"/>
    <path fill="none" stroke="rgb(0,0,0)" stroke-width="38" stroke-linejoin="miter" d="M 8563,6067 L 9050,6067 9517,6061"/>
   </g>
  </g>
  <g class="com.sun.star.drawing.LineShape">
   <g id="id17">
    <rect class="BoundingBox" stroke="none" fill="none" x="7296" y="5851" width="508" height="39"/>
    <path fill="none" stroke="rgb(0,0,0)" stroke-width="38" stroke-linejoin="miter" d="M 7803,5870 L 7296,5870"/>
   </g>
  </g>
  <g class="com.sun.star.drawing.LineShape">
   <g id="id18">
    <rect class="BoundingBox" stroke="none" fill="none" x="7296" y="6241" width="527" height="39"/>
    <path fill="none" stroke="rgb(0,0,0)" stroke-width="38" stroke-linejoin="miter" d="M 7822,6260 L 7296,6260"/>
   </g>
  </g>
  <g class="com.sun.star.drawing.ClosedBezierShape">
   <g id="id19">
    <rect class="BoundingBox" stroke="none" fill="none" x="7668" y="5675" width="947" height="782"/>
    <path fill="rgb(0,0,0)" stroke="none" d="M 7668,5675 L 7707,5722 C 7707,5722 7817,5860 7817,6066 7817,6272 7707,6408 7707,6408 L 7668,6456 8002,6456 C 8050,6456 8153,6456 8269,6409 8385,6361 8513,6266 8614,6080 L 8588,6066 8614,6052 C 8413,5679 8096,5675 8002,5675 L 7668,5675 Z M 7783,5733 L 8002,5733 C 8095,5733 8360,5731 8549,6066 8456,6230 8343,6313 8242,6354 8138,6397 8050,6397 8002,6397 L 7783,6397 C 7820,6336 7876,6221 7876,6066 7876,5910 7819,5794 7783,5733 Z"/>
   </g>
  </g>
  <g class="com.sun.star.drawing.OpenBezierShape">
   <g id="id20">
    <rect class="BoundingBox" stroke="none" fill="none" x="11826" y="6034" width="489" height="39"/>
    <path fill="none" stroke="rgb(0,0,0)" stroke-width="38" stroke-linejoin="miter" d="M 11826,6053 L 12313,6053"/>
   </g>
  </g>
  <g class="com.sun.star.drawing.PolyLineShape">
   <g id="id21">
    <rect class="BoundingBox" stroke="none" fill="none" x="10535" y="4225" width="532" height="1655"/>
    <path fill="none" stroke="rgb(0,0,0)" stroke-width="38" stroke-linejoin="miter" d="M 11066,5859 L 10558,5859 10554,4226"/>
   </g>
  </g>
  <g class="com.sun.star.drawing.LineShape">
   <g id="id22">
    <rect class="BoundingBox" stroke="none" fill="none" x="10725" y="6229" width="361" height="39"/>
    <path fill="none" stroke="rgb(0,0,0)" stroke-width="38" stroke-linejoin="miter" d="M 11085,6248 L 10725,6248"/>
   </g>
  </g>
  <g class="com.sun.star.drawing.ClosedBezierShape">
   <g id="id23">
    <rect class="BoundingBox" stroke="none" fill="none" x="10931" y="5663" width="947" height="782"/>
    <path fill="rgb(0,0,0)" stroke="none" d="M 10931,5663 L 10970,5710 C 10970,5710 11080,5848 11080,6054 11080,6259 10970,6396 10970,6396 L 10931,6443 11265,6443 C 11312,6443 11415,6444 11531,6397 11646,6349 11775,6253 11876,6068 L 11851,6054 11876,6040 C 11675,5667 11358,5663 11265,5663 L 10931,5663 Z M 11045,5721 L 11265,5721 C 11356,5721 11622,5719 11811,6054 11717,6218 11605,6301 11504,6342 11399,6385 11312,6385 11265,6385 L 11046,6385 C 11082,6324 11138,6209 11138,6054 11138,5898 11082,5782 11045,5721 Z"/>
   </g>
  </g>
  <g class="com.sun.star.drawing.OpenBezierShape">
   <g id="id24">
    <rect class="BoundingBox" stroke="none" fill="none" x="11856" y="4426" width="488" height="39"/>
    <path fill="none" stroke="rgb(0,0,0)" stroke-width="38" stroke-linejoin="miter" d="M 11856,4445 L 12343,4445"/>
   </g>
  </g>
  <g class="com.sun.star.drawing.LineShape">
   <g id="id25">
    <rect class="BoundingBox" stroke="none" fill="none" x="10555" y="4231" width="542" height="39"/>
    <path fill="none" stroke="rgb(0,0,0)" stroke-width="38" stroke-linejoin="miter" d="M 11096,4250 L 10555,4250"/>
   </g>
  </g>
  <g class="com.sun.star.drawing.LineShape">
   <g id="id26">
    <rect class="BoundingBox" stroke="none" fill="none" x="10727" y="4621" width="391" height="46"/>
    <path fill="none" stroke="rgb(0,0,0)" stroke-width="38" stroke-linejoin="miter" d="M 11116,4640 L 10728,4647"/>
   </g>
  </g>
  <g class="com.sun.star.drawing.ClosedBezierShape">
   <g id="id27">
    <rect class="BoundingBox" stroke="none" fill="none" x="11076" y="4055" width="791" height="782"/>
    <path fill="rgb(0,0,0)" stroke="none" d="M 11076,4055 L 11076,4836 11476,4836 C 11696,4836 11866,4660 11866,4446 11866,4230 11696,4055 11476,4055 L 11104,4055 11076,4055 Z M 11132,4111 C 11287,4111 11386,4111 11429,4111 11453,4111 11465,4111 11470,4111 11473,4111 11475,4111 11476,4111 11667,4111 11801,4259 11801,4446 11801,4631 11657,4780 11467,4780 L 11132,4780 11132,4111 Z"/>
   </g>
  </g>
  <g class="com.sun.star.drawing.LineShape">
   <g id="id28">
    <rect class="BoundingBox" stroke="none" fill="none" x="10726" y="4647" width="40" height="1600"/>
    <path fill="none" stroke="rgb(0,0,0)" stroke-width="38" stroke-linejoin="miter" d="M 10746,4648 L 10745,6245"/>
   </g>
  </g>
  <g class="com.sun.star.drawing.LineShape">
   <g id="id29">
    <rect class="BoundingBox" stroke="none" fill="none" x="9916" y="4635" width="635" height="42"/>
    <path fill="none" stroke="rgb(0,0,0)" stroke-width="38" stroke-linejoin="miter" d="M 9917,4657 L 10549,4654"/>
   </g>
  </g>
  <g class="com.sun.star.drawing.PolyLineShape">
   <g id="id30">
    <rect class="BoundingBox" stroke="none" fill="none" x="9901" y="5812" width="848" height="459"/>
    <path fill="none" stroke="rgb(0,0,0)" stroke-width="38" stroke-linejoin="miter" d="M 9902,5834 L 10256,5832 10253,6250 10747,6249"/>
   </g>
  </g>
 </g>
</svg>